<?xml version="1.0" encoding="utf-8"?>
<!-- Generator: Adobe Illustrator 18.0.0, SVG Export Plug-In . SVG Version: 6.00 Build 0)  -->
<!DOCTYPE svg PUBLIC "-//W3C//DTD SVG 1.1//EN" "http://www.w3.org/Graphics/SVG/1.1/DTD/svg11.dtd">
<svg version="1.1" id="Layer_1" xmlns="http://www.w3.org/2000/svg" xmlns:xlink="http://www.w3.org/1999/xlink" x="0px" y="0px"
	 viewBox="0 0 48 48" enable-background="new 0 0 48 48" xml:space="preserve">
<g>
	<polygon fill="#F8B64C" points="24,26.4 24,1.2 29.6,18.6 	"/>
	<polygon fill="#FFD15C" points="24,26.4 24,1.2 18.4,18.6 	"/>
	<polygon fill="#FFD15C" points="24,26.4 48,18.5 29.6,18.6 	"/>
	<polygon fill="#F8B64C" points="24,26.4 48,18.5 33.1,29.3 	"/>
	<polygon fill="#F8B64C" points="24,26.4 38.8,46.8 24,36 	"/>
	<polygon fill="#FFD15C" points="24,26.4 38.8,46.8 33.1,29.3 	"/>
	<polygon fill="#F8B64C" points="24,26.4 0,18.5 18.4,18.6 	"/>
	<polygon fill="#FFD15C" points="24,26.4 0,18.5 14.9,29.3 	"/>
	<polygon fill="#FFD15C" points="24,26.4 9.2,46.8 24,36 	"/>
	<polygon fill="#F8B64C" points="24,26.4 9.2,46.8 14.9,29.3 	"/>
</g>
</svg>
